<svg width="284" height="56" viewBox="0 0 284 56" fill="none" xmlns="http://www.w3.org/2000/svg">
<path d="M82.4872 21.221C83.073 20.6352 83.073 19.6855 82.4872 19.0997L72.9413 9.55374C72.3555 8.96795 71.4058 8.96795 70.82 9.55374C70.2342 10.1395 70.2342 11.0893 70.82 11.6751L79.3052 20.1603L70.82 28.6456C70.2342 29.2314 70.2342 30.1812 70.82 30.7669C71.4058 31.3527 72.3555 31.3527 72.9413 30.7669L82.4872 21.221ZM49.7461 21.6603H81.4266V18.6603H49.7461V21.6603Z" fill="#002D72"/>
<circle cx="28.6301" cy="13.6545" r="13.6545" fill="#9D9DB5"/>
<path d="M4.65785 43.4836C2.28048 33.4541 9.88727 23.8334 20.1946 23.8334H37.4614C47.9724 23.8334 55.616 33.8135 52.8771 43.9614C50.9968 50.9282 44.6775 55.768 37.4614 55.768H20.1946C12.7948 55.768 6.36459 50.6838 4.65785 43.4836Z" fill="#9D9DB5"/>
<circle cx="104.297" cy="13.6545" r="13.6545" fill="#5B7398"/>
<path d="M80.3243 43.4836C77.9469 33.4541 85.5537 23.8334 95.861 23.8334H113.128C123.639 23.8334 131.282 33.8135 128.544 43.9614C126.663 50.9282 120.344 55.768 113.128 55.768H95.861C88.4613 55.768 82.031 50.6838 80.3243 43.4836Z" fill="#5B7398"/>
<circle cx="180.749" cy="13.6545" r="13.6545" fill="#3F516D"/>
<path d="M156.776 43.4836C154.399 33.4541 162.006 23.8334 172.313 23.8334H189.58C200.091 23.8334 207.735 33.8135 204.996 43.9614C203.115 50.9282 196.796 55.768 189.58 55.768H172.313C164.913 55.768 158.483 50.6838 156.776 43.4836Z" fill="#3F516D"/>
<circle cx="254.321" cy="13.6545" r="13.6545" fill="#2E3A4D"/>
<path d="M230.348 43.4836C227.971 33.4541 235.578 23.8334 245.885 23.8334H263.152C273.663 23.8334 281.306 33.8135 278.568 43.9614C276.687 50.9282 270.368 55.768 263.152 55.768H245.885C238.485 55.768 232.055 50.6838 230.348 43.4836Z" fill="#2E3A4D"/>
<path d="M161.296 20.1736C161.881 19.5878 161.881 18.6381 161.296 18.0523L151.75 8.50637C151.164 7.92059 150.214 7.92059 149.628 8.50637C149.043 9.09216 149.043 10.0419 149.628 10.6277L158.114 19.113L149.628 27.5983C149.043 28.184 149.043 29.1338 149.628 29.7196C150.214 30.3054 151.164 30.3054 151.75 29.7196L161.296 20.1736ZM128.555 20.613H160.235V17.613H128.555V20.613Z" fill="#002D72"/>
<path d="M237.486 20.1736C238.072 19.5878 238.072 18.6381 237.486 18.0523L227.94 8.50637C227.354 7.92059 226.404 7.92059 225.819 8.50637C225.233 9.09216 225.233 10.0419 225.819 10.6277L234.304 19.113L225.819 27.5983C225.233 28.184 225.233 29.1338 225.819 29.7196C226.404 30.3054 227.354 30.3054 227.94 29.7196L237.486 20.1736ZM204.745 20.613H236.425V17.613H204.745V20.613Z" fill="#002D72"/>
</svg>
