<svg id="visual" viewBox="0 0 1920 600" width="1920" height="600" xmlns="http://www.w3.org/2000/svg" xmlns:xlink="http://www.w3.org/1999/xlink" version="1.1"><rect x="0" y="0" width="1920" height="600" fill="#ffffff"></rect><path d="M0 430L80 443.2C160 456.3 320 482.7 480 442.3C640 402 800 295 960 285.8C1120 276.7 1280 365.3 1440 378.5C1600 391.7 1760 329.3 1840 298.2L1920 267L1920 0L1840 0C1760 0 1600 0 1440 0C1280 0 1120 0 960 0C800 0 640 0 480 0C320 0 160 0 80 0L0 0Z" fill="#5787D3" stroke-linecap="round" stroke-linejoin="miter"></path></svg>