<svg width="340" height="85" viewBox="0 0 340 85" fill="none" xmlns="http://www.w3.org/2000/svg">
<rect width="149.155" height="85" rx="10" fill="#E03C3C"/>
<path d="M7.13446 25.3215C7.13446 14.0475 16.2738 4.90814 27.5478 4.90814H34.2098C45.4838 4.90814 54.6232 14.0475 54.6232 25.3215V25.3215C54.6232 36.5955 45.4838 45.7349 34.2098 45.7349H27.5478C16.2738 45.7349 7.13446 36.5955 7.13446 25.3215V25.3215Z" fill="white"/>
<rect x="5.79675" y="51.9816" width="137.561" height="5.35433" rx="2.67717" fill="white"/>
<rect x="63.9872" y="11.1548" width="21.1804" height="6.91601" rx="3.458" fill="white"/>
<rect x="93.1938" y="11.1548" width="21.1804" height="6.91601" rx="3.458" fill="white"/>
<rect x="122.178" y="11.1548" width="21.1804" height="6.91601" rx="3.458" fill="white"/>
<rect x="63.9872" y="11.1548" width="21.1804" height="6.91601" rx="3.458" fill="white"/>
<rect x="5.79675" y="61.1286" width="137.561" height="5.35433" rx="2.67717" fill="white"/>
<rect x="5.79675" y="70.2756" width="137.561" height="5.35432" rx="2.67716" fill="white"/>
<rect x="190.226" width="149.262" height="85" rx="10" fill="#509F43"/>
<path d="M197.365 25.3215C197.365 14.0475 206.505 4.90814 217.779 4.90814H224.475C235.749 4.90814 244.888 14.0475 244.888 25.3215C244.888 36.5955 235.749 45.7349 224.475 45.7349H217.779C206.505 45.7349 197.365 36.5955 197.365 25.3215Z" fill="white"/>
<rect x="196.027" y="51.9816" width="137.66" height="5.35433" rx="2.67717" fill="white"/>
<rect x="254.259" y="11.1548" width="21.1957" height="6.91601" rx="3.458" fill="white"/>
<rect x="283.487" y="11.1548" width="21.1957" height="6.91601" rx="3.458" fill="white"/>
<rect x="312.491" y="11.1548" width="21.1957" height="6.91601" rx="3.458" fill="white"/>
<rect x="254.259" y="11.1548" width="21.1957" height="6.91601" rx="3.458" fill="white"/>
<rect x="196.027" y="61.1286" width="137.66" height="5.35433" rx="2.67717" fill="white"/>
<rect x="196.027" y="70.2756" width="137.66" height="5.35432" rx="2.67716" fill="white"/>
<rect x="13.6132" y="11.256" width="5.46429" height="44.3214" rx="2.73214" transform="rotate(-45 13.6132 11.256)" fill="#E03C3C"/>
<rect x="16.921" y="42.3725" width="5.46429" height="44.3214" rx="2.73214" transform="rotate(-135 16.921 42.3725)" fill="#E03C3C"/>
<rect x="203.494" y="25.9673" width="5.46429" height="18.7769" rx="2.73214" transform="rotate(-45 203.494 25.9673)" fill="#509F43"/>
<rect x="217.002" y="39.265" width="5.46429" height="38.4783" rx="2.73214" transform="rotate(-135 217.002 39.265)" fill="#509F43"/>
</svg>
